<svg xmlns="http://www.w3.org/2000/svg" width="26" height="25" viewBox="0 0 26 25">
    <path fill="#000" stroke="#000" stroke-width="2" d="M1.337 11.86c-.019.024-.04.046-.058.07-.038.056-.069.116-.099.177-.008.019-.02.035-.028.053-.033.077-.059.158-.077.241 0 .005-.003.009-.004.013-.018.088-.028.179-.028.271 0 .093.01.184.028.271l.004.013c.018.084.044.165.077.242.008.018.02.034.028.053.03.06.061.12.1.176.017.025.038.047.057.07.036.046.072.091.114.132.005.004.008.01.013.015l10.649 9.983c.536.503 1.379.476 1.881-.06.503-.537.476-1.38-.06-1.882L5.74 14.017H23.67c.735 0 1.331-.596 1.331-1.332 0-.735-.596-1.33-1.331-1.33H5.74l8.194-7.682c.536-.503.563-1.345.06-1.881-.262-.28-.616-.421-.971-.421-.326 0-.653.12-.91.36L1.464 11.714l-.013.015c-.042.04-.078.086-.114.131z"/>
</svg>